<svg width="18" height="19" viewBox="0 0 18 19" fill="none" xmlns="http://www.w3.org/2000/svg">
<path d="M8.29199 2.19922C8.56813 2.19922 8.79199 2.42308 8.79199 2.69922V3.99121C8.79199 7.30492 11.4783 9.99121 14.792 9.99121H16.0947C16.3708 9.99121 16.5946 10.2152 16.5947 10.4912C16.5947 10.7674 16.3709 10.9912 16.0947 10.9912H14.792C11.4783 10.9912 8.79199 13.6775 8.79199 16.9912V18.2939C8.79186 18.57 8.56805 18.7939 8.29199 18.7939C8.01593 18.7939 7.79212 18.57 7.79199 18.2939V16.9912C7.79199 13.6775 5.1057 10.9912 1.79199 10.9912H0.5C0.22397 10.9911 -1.2067e-08 10.7673 0 10.4912C0.000131622 10.2153 0.224052 9.99134 0.5 9.99121H1.79199C5.1057 9.99121 7.79199 7.30492 7.79199 3.99121V2.69922C7.79199 2.42308 8.01585 2.19922 8.29199 2.19922Z" fill="black"/>
<path d="M15.2314 0C15.3044 0.00024902 15.3633 0.0597668 15.3633 0.132812C15.3633 1.20017 16.2324 2.06543 17.2998 2.06543C17.373 2.06543 17.4326 2.12504 17.4326 2.19824C17.4325 2.27138 17.373 2.33105 17.2998 2.33105C16.2308 2.33105 15.3633 3.19763 15.3633 4.2666C15.3631 4.33952 15.3043 4.39819 15.2314 4.39844C15.1583 4.39844 15.0988 4.33967 15.0986 4.2666C15.0986 3.19925 14.2334 2.33105 13.166 2.33105C13.0929 2.33102 13.0333 2.27136 13.0332 2.19824C13.0332 2.12506 13.0928 2.06546 13.166 2.06543C14.2334 2.06543 15.0986 1.20017 15.0986 0.132812C15.0986 0.0596127 15.1582 0 15.2314 0Z" fill="black"/>
</svg>
