<svg width="21" height="21" viewBox="0 0 21 21" fill="none" xmlns="http://www.w3.org/2000/svg">
<rect x="1.71045" y="1.7103" width="17.1029" height="17.1029" rx="8.55146" stroke="#222628" stroke-width="1.4"/>
<path d="M10.4746 11.7908C10.1057 11.7908 9.79341 11.4889 9.85403 11.125C9.95798 10.501 10.2426 10.1159 10.803 9.68491L11.1992 9.37921C11.6068 9.06219 11.7767 8.7112 11.7767 8.33757C11.7767 7.70354 11.3691 7.31858 10.7124 7.31858C10.1476 7.31858 9.74385 7.5658 9.5584 8.07252C9.41548 8.46302 9.10722 8.8131 8.6914 8.8131C8.27557 8.8131 7.92627 8.47122 8.01954 8.06599C8.30102 6.84299 9.29807 6.10712 10.735 6.10712C12.1503 6.10712 13.2146 6.94495 13.2146 8.29229C13.2146 9.10748 12.7051 9.80945 12.2182 10.1718L11.788 10.4888C11.5067 10.7062 11.3373 10.8983 11.2431 11.1345C11.1065 11.4772 10.8436 11.7908 10.4746 11.7908ZM10.4803 14.2364C10.0051 14.2364 9.61415 13.8511 9.61415 13.3759C9.61415 12.9007 10.0051 12.5154 10.4803 12.5154C10.9555 12.5154 11.3464 12.9007 11.3464 13.3759C11.3464 13.8511 10.9555 14.2364 10.4803 14.2364Z" fill="black"/>
</svg>
