<svg width="28" height="27" viewBox="0 0 28 27" fill="none" xmlns="http://www.w3.org/2000/svg">
<path d="M5.83203 11.5417C5.83203 8.584 5.83203 7.10516 6.43795 5.98921C6.89918 5.13972 7.59675 4.44215 8.44624 3.98091C9.56219 3.375 11.041 3.375 13.9987 3.375C16.9564 3.375 18.4352 3.375 19.5512 3.98091C20.4006 4.44215 21.0982 5.13972 21.5594 5.98921C22.1654 7.10516 22.1654 8.584 22.1654 11.5417V16.6162C22.1654 20.3599 22.1654 22.2318 21.3156 22.76C21.0556 22.9215 20.7588 23.0141 20.4531 23.0291C19.4538 23.0779 18.3893 21.5381 16.2603 18.4587L15.4793 17.3291C14.8864 16.4715 14.5899 16.0427 14.1907 15.9646C14.0639 15.9398 13.9335 15.9398 13.8067 15.9646C13.4075 16.0427 13.111 16.4715 12.5181 17.3291L11.7371 18.4587C9.60813 21.5381 8.54363 23.0779 7.54426 23.0291C7.23858 23.0141 6.94175 22.9215 6.68182 22.76C5.83203 22.2318 5.83203 20.3599 5.83203 16.6162V11.5417Z" fill="#007AFF" stroke="#007AFF" stroke-width="1.4" stroke-linejoin="round"/>
</svg>
