<svg width="24" height="24" viewBox="0 0 24 24" fill="none" xmlns="http://www.w3.org/2000/svg">
<path d="M5.65796 14.2002C6.27639 13.8942 6.61709 14.6673 6.62671 14.6895L6.63745 14.709C6.64748 14.7277 6.66382 14.7586 6.68726 14.7988C6.73428 14.8796 6.80855 14.9999 6.91089 15.1465C7.11631 15.4408 7.43242 15.8363 7.8689 16.2314C8.73653 17.017 10.076 17.7997 11.9998 17.7998C13.9235 17.7998 15.2629 17.0169 16.1306 16.2314C16.567 15.8364 16.8832 15.4407 17.0886 15.1465C17.1909 15 17.2652 14.8796 17.3123 14.7988C17.3356 14.7587 17.352 14.7277 17.3621 14.709L17.3718 14.6904C17.5434 14.3444 17.964 14.2018 18.3103 14.373C18.6566 14.5446 18.7981 14.9641 18.6267 15.3105V15.3125L18.6257 15.3135L18.6238 15.3184L18.6169 15.3301C18.6118 15.34 18.6051 15.354 18.5964 15.3701C18.579 15.4026 18.5543 15.4478 18.5222 15.5029C18.4579 15.6135 18.3626 15.767 18.2361 15.9482C17.9834 16.3101 17.5997 16.7901 17.0701 17.2695C16.1142 18.1348 14.6782 18.9991 12.7 19.168V22C12.6998 22.3865 12.3863 22.7002 11.9998 22.7002C11.6134 22.7 11.2997 22.3864 11.2996 22V19.168C9.32124 18.999 7.88533 18.1349 6.92944 17.2695C6.39977 16.79 6.01609 16.3101 5.76343 15.9482C5.63689 15.767 5.54165 15.6135 5.47729 15.5029C5.44516 15.4477 5.4205 15.4027 5.40308 15.3701C5.3944 15.3539 5.38768 15.34 5.38257 15.3301L5.37573 15.3184L5.37378 15.3135L5.3728 15.3125V15.3105C5.35675 15.2718 5.04715 14.5029 5.65796 14.2002ZM11.9998 2.2998C14.5955 2.2998 16.7 4.40426 16.7 7V11C16.7 13.5957 14.5955 15.7002 11.9998 15.7002C9.40413 15.7001 7.29956 13.5957 7.29956 11V7C7.29956 4.40434 9.40413 2.29994 11.9998 2.2998ZM11.9998 3.7002C10.1773 3.70033 8.69995 5.17754 8.69995 7V11C8.69995 12.8225 10.1773 14.2997 11.9998 14.2998C13.8223 14.2998 15.2996 12.8225 15.2996 11V7C15.2996 5.17746 13.8223 3.7002 11.9998 3.7002Z" fill="#131212"/>
</svg>
