<svg width="20" height="20" viewBox="0 0 20 20" fill="none" xmlns="http://www.w3.org/2000/svg">
<path d="M11.9603 10.9297C14.1718 10.7583 16.2279 12.2516 16.6263 14.4707C17.0914 17.064 15.0977 19.4469 12.4632 19.4473H4.22101C1.71507 19.4471 -0.238994 17.2763 0.0237427 14.7842C0.271969 12.4332 2.39077 10.7692 4.71027 10.9414C5.86657 11.0272 7.14022 11.0947 8.27667 11.0947C9.46451 11.0947 10.785 11.0209 11.9603 10.9297ZM12.0687 12.3252C10.876 12.4178 9.51548 12.4941 8.27667 12.4941C7.09132 12.4941 5.77884 12.424 4.60577 12.3369C3.00236 12.2181 1.58136 13.3699 1.41632 14.9307C1.24069 16.5962 2.54632 18.0477 4.22101 18.0479H12.4632C14.2256 18.0475 15.5595 16.4526 15.2484 14.7178C14.9833 13.2421 13.5999 12.2067 12.0687 12.3252ZM8.49835 0.966797C10.757 0.967131 12.588 2.7989 12.5882 5.05762V5.81348C12.5879 7.80464 10.9739 9.4186 8.98273 9.41895H8.01398C6.02262 9.41886 4.40778 7.8048 4.40753 5.81348V5.05762C4.40773 2.79875 6.23946 0.966886 8.49835 0.966797ZM8.49835 2.36719C7.01266 2.36728 5.80812 3.57195 5.80792 5.05762V5.81348C5.80817 7.0316 6.79582 8.01944 8.01398 8.01953H8.98273C10.2007 8.01918 11.1885 7.03144 11.1888 5.81348V5.05762C11.1886 3.5721 9.98384 2.36752 8.49835 2.36719ZM16.6927 0C17.0793 1.02857e-07 17.3929 0.313596 17.3929 0.700195V1.82031H18.513C18.8995 1.82031 19.2131 2.13402 19.2132 2.52051C19.2132 2.90711 18.8996 3.2207 18.513 3.2207H17.3929V4.34082C17.3929 4.72742 17.0793 5.04102 16.6927 5.04102C16.3062 5.04084 15.9925 4.72731 15.9925 4.34082V3.2207H14.8724C14.486 3.22046 14.1722 2.90696 14.1722 2.52051C14.1723 2.13417 14.4861 1.82056 14.8724 1.82031H15.9925V0.700195C15.9925 0.313707 16.3062 0.000180444 16.6927 0Z" fill="#222628"/>
</svg>
