<svg width="14" height="20" viewBox="0 0 14 20" fill="none" xmlns="http://www.w3.org/2000/svg">
<path d="M1.39922 0.700195C1.39922 0.313596 1.08582 0.000195324 0.699219 0.000195324C0.312619 0.000195324 -0.000781238 0.313596 -0.000781238 0.700195H0.699219H1.39922ZM0.699219 14.5286H-0.000781238V15.2286H0.699219V14.5286ZM13.1497 15.0235C13.4231 14.7502 13.4231 14.307 13.1497 14.0336L8.69497 9.57881C8.4216 9.30545 7.97838 9.30545 7.70502 9.57881C7.43165 9.85218 7.43165 10.2954 7.70502 10.5688L11.6648 14.5286L7.70502 18.4884C7.43165 18.7617 7.43165 19.2049 7.70502 19.4783C7.97838 19.7517 8.4216 19.7517 8.69497 19.4783L13.1497 15.0235ZM0.699219 0.700195H-0.000781238V14.5286H0.699219H1.39922V0.700195H0.699219ZM0.699219 14.5286V15.2286H12.6548V14.5286V13.8286H0.699219V14.5286Z" fill="#90A1B9"/>
</svg>
