<svg width="24" height="24" viewBox="0 0 24 24" fill="none" xmlns="http://www.w3.org/2000/svg">
<path d="M12 2C14.3358 2 15.055 3.34721 15.2065 4.64302C15.2789 5.26214 16.3989 5.93158 16.979 5.70341C18.1311 5.25025 19.5671 5.22903 20.6602 7C21.7246 9.02485 20.667 10.3803 19.5865 11.1632C19.1196 11.5015 19.1196 12.4985 19.5865 12.8368C20.667 13.6197 21.7246 14.9751 20.6602 17C19.5671 18.771 18.1311 18.7497 16.979 18.2966C16.3989 18.0684 15.2789 18.7379 15.2065 19.357C15.055 20.6528 14.3358 22 12 22C9.66412 22 8.94492 20.6528 8.79341 19.357C8.72102 18.7379 7.60106 18.0684 7.02098 18.2966C5.86887 18.7497 4.43278 18.771 3.33971 17C2.39485 15.2025 3.1222 13.9325 4.05334 13.1223C4.51751 12.7184 4.43987 11.4663 3.93878 11.1093C2.90636 10.3737 2.11106 9.10049 3.33971 7C4.392 5.20101 5.70845 5.09638 6.80691 5.48925C7.41047 5.70512 8.71989 4.97007 8.83957 4.34033C9.0666 3.14576 9.84583 2 12 2Z" stroke="#222628" stroke-width="1.4"/>
<circle cx="12" cy="12" r="2.3" stroke="#222628" stroke-width="1.4"/>
</svg>
