<svg width="24" height="24" viewBox="0 0 24 24" fill="none" xmlns="http://www.w3.org/2000/svg">
<path d="M14.082 9.5564L9.83939 13.799" stroke="#222628" stroke-width="1.4" stroke-linecap="round"/>
<path d="M9.76348 14.5228L12.2663 17.8599C13.6561 19.713 14.351 20.6396 15.1875 20.6865C15.4458 20.701 15.715 20.657 15.9553 20.5612C16.7335 20.2507 17.0928 19.1662 17.8115 16.9971C18.2512 15.6701 18.6884 14.2934 19.0317 13.0919C19.5089 11.4217 20.1677 9.01706 20.762 6.82427C21.3336 4.71583 21.6193 3.66161 21.1819 2.98713C21.0448 2.77581 20.8625 2.59349 20.6512 2.45643C19.9767 2.01898 18.9225 2.30474 16.814 2.87626C14.6212 3.47065 12.2166 4.12941 10.5464 4.6066C9.3449 4.94989 7.96816 5.38715 6.64118 5.82682C4.47211 6.54548 3.38758 6.90481 3.07713 7.68299C2.98127 7.92326 2.93733 8.19249 2.95182 8.45078C2.99874 9.28728 3.92528 9.98218 5.77837 11.372L9.11548 13.8748C9.27974 13.998 9.36187 14.0596 9.43621 14.1299C9.46097 14.1532 9.48506 14.1773 9.50844 14.2021C9.57868 14.2764 9.64028 14.3586 9.76348 14.5228Z" stroke="#222628" stroke-width="1.4"/>
</svg>
