<svg width="21" height="10" viewBox="0 0 21 10" fill="none" xmlns="http://www.w3.org/2000/svg">
<path d="M15.1553 1.26642V0.766418V1.26642ZM19.75 5.13556H20.25V5.13553L19.75 5.13556ZM15.1553 9.0047V9.5047V9.0047ZM11.3281 7.27618L11.7204 6.96616L11.7075 6.94986L11.6933 6.93469L11.3281 7.27618ZM11.291 7.23712L10.9202 7.57254L10.9202 7.57255L11.291 7.23712ZM7.60547 7.19513L7.18406 6.92582L7.1785 6.93494L7.60547 7.19513ZM4.4375 9.0047L4.43748 9.5047H4.4375V9.0047ZM0.695312 5.13556L0.195312 5.13551V5.13556H0.695312ZM4.4375 1.26642V0.766418H4.43748L4.4375 1.26642ZM7.62598 3.10919L7.19646 3.36516L7.20939 3.38685L7.22443 3.40712L7.62598 3.10919ZM11.2568 3.08771L11.6437 3.40448L11.6512 3.39529L11.6583 3.38576L11.2568 3.08771ZM15.1553 1.26642V1.76642C17.5006 1.76642 19.2499 3.35195 19.25 5.13559L19.75 5.13556L20.25 5.13553C20.2499 2.64553 17.885 0.766418 15.1553 0.766418V1.26642ZM19.75 5.13556H19.25C19.25 6.91923 17.5007 8.5047 15.1553 8.5047V9.0047V9.5047C17.885 9.5047 20.25 7.62569 20.25 5.13556H19.75ZM15.1553 9.0047V8.5047C13.6967 8.5047 12.4405 7.87733 11.7204 6.96616L11.3281 7.27618L10.9358 7.58621C11.8624 8.75858 13.419 9.5047 15.1553 9.5047V9.0047ZM11.3281 7.27618L11.6933 6.93469C11.6838 6.92445 11.6734 6.91382 11.6694 6.90963C11.6667 6.90683 11.6649 6.90503 11.6636 6.90361C11.663 6.90294 11.6625 6.90247 11.6622 6.90214C11.6619 6.90182 11.6618 6.90168 11.6618 6.90169L11.291 7.23712L10.9202 7.57255C10.9322 7.58577 10.9432 7.59724 10.95 7.60428C10.9585 7.61301 10.9605 7.61509 10.9629 7.61768L11.3281 7.27618ZM11.291 7.23712L11.6618 6.9017C10.845 5.99874 9.87474 5.7511 9.03022 5.8644C8.22415 5.97255 7.51052 6.4152 7.18416 6.92588L7.60547 7.19513L8.02678 7.46438C8.16733 7.24446 8.5943 6.93185 9.16319 6.85552C9.69363 6.78436 10.3327 6.92301 10.9202 7.57254L11.291 7.23712ZM7.60547 7.19513L7.1785 6.93494C6.60009 7.88412 5.58531 8.5047 4.4375 8.5047V9.0047V9.5047C5.95898 9.5047 7.28583 8.6805 8.03244 7.45532L7.60547 7.19513ZM4.4375 9.0047L4.43752 8.5047C2.66246 8.50463 1.19531 7.01211 1.19531 5.13556H0.695312H0.195312C0.195312 7.53272 2.07901 9.5046 4.43748 9.5047L4.4375 9.0047ZM0.695312 5.13556L1.19531 5.1356C1.19548 3.25915 2.66262 1.76649 4.43752 1.76642L4.4375 1.26642L4.43748 0.766418C2.07909 0.766517 0.19553 2.73861 0.195312 5.13551L0.695312 5.13556ZM4.4375 1.26642V1.76642C5.59682 1.76642 6.62122 2.39989 7.19646 3.36516L7.62598 3.10919L8.05549 2.85323C7.31314 1.60754 5.97429 0.766418 4.4375 0.766418V1.26642ZM7.62598 3.10919L7.22443 3.40712C7.63745 3.96378 8.0684 4.3411 8.51952 4.55132C8.97974 4.76579 9.43207 4.79248 9.84923 4.6934C10.6458 4.50421 11.2632 3.86916 11.6437 3.40448L11.2568 3.08771L10.87 2.77094C10.5088 3.21206 10.0713 3.61283 9.61815 3.72047C9.41045 3.7698 9.18921 3.76015 8.94192 3.64491C8.68554 3.52544 8.37507 3.27968 8.02752 2.81126L7.62598 3.10919ZM11.2568 3.08771L11.6583 3.38576C12.3668 2.43147 13.6534 1.76642 15.1553 1.76642V1.26642V0.766418C13.3685 0.76642 11.7706 1.5569 10.8554 2.78966L11.2568 3.08771Z" fill="black"/>
</svg>
